/home/xinjie/Newton_Connection/Newton/phystwin_bridge/tools/core/newton_import_ir.py:1209: UserWarning: tabletop_table_box: PhysTwin ground collide_elas is present in IR, but native Newton SemiImplicit has no direct 1-to-1 restitution field for particle-vs-shape contacts. Ground bounce will therefore use native Newton ground ke/kd/kf defaults unless --ground-restitution-mode=approximate-native is selected.
  warnings.warn(message)
ffmpeg version 6.1.1-3ubuntu5+esm7 Copyright (c) 2000-2023 the FFmpeg developers
  built with gcc 13 (Ubuntu 13.3.0-6ubuntu2~24.04)
  configuration: --prefix=/usr --extra-version=3ubuntu5+esm7 --toolchain=hardened --libdir=/usr/lib/x86_64-linux-gnu --incdir=/usr/include/x86_64-linux-gnu --arch=amd64 --enable-gpl --disable-stripping --disable-omx --enable-gnutls --enable-libaom --enable-libass --enable-libbs2b --enable-libcaca --enable-libcdio --enable-libcodec2 --enable-libdav1d --enable-libflite --enable-libfontconfig --enable-libfreetype --enable-libfribidi --enable-libglslang --enable-libgme --enable-libgsm --enable-libharfbuzz --enable-libmp3lame --enable-libmysofa --enable-libopenjpeg --enable-libopenmpt --enable-libopus --enable-librubberband --enable-libshine --enable-libsnappy --enable-libsoxr --enable-libspeex --enable-libtheora --enable-libtwolame --enable-libvidstab --enable-libvorbis --enable-libvpx --enable-libwebp --enable-libx265 --enable-libxml2 --enable-libxvid --enable-libzimg --enable-openal --enable-opencl --enable-opengl --disable-sndio --enable-libvpl --disable-libmfx --enable-libdc1394 --enable-libdrm --enable-libiec61883 --enable-chromaprint --enable-frei0r --enable-ladspa --enable-libbluray --enable-libjack --enable-libpulse --enable-librabbitmq --enable-librist --enable-libsrt --enable-libssh --enable-libsvtav1 --enable-libx264 --enable-libzmq --enable-libzvbi --enable-lv2 --enable-sdl2 --enable-libplacebo --enable-librav1e --enable-pocketsphinx --enable-librsvg --enable-libjxl --enable-shared
  libavutil      58. 29.100 / 58. 29.100
  libavcodec     60. 31.102 / 60. 31.102
  libavformat    60. 16.100 / 60. 16.100
  libavdevice    60.  3.100 / 60.  3.100
  libavfilter     9. 12.100 /  9. 12.100
  libswscale      7.  5.100 /  7.  5.100
  libswresample   4. 12.100 /  4. 12.100
  libpostproc    57.  3.100 / 57.  3.100
Input #0, rawvideo, from 'fd:':
  Duration: N/A, start: 0.000000, bitrate: 663552 kb/s
  Stream #0:0: Video: rawvideo (RGB[24] / 0x18424752), rgb24, 1280x720, 663552 kb/s, 30 tbr, 30 tbn
Stream mapping:
  Stream #0:0 -> #0:0 (rawvideo (native) -> h264 (libx264))
[libx264 @ 0x5f395900e480] using cpu capabilities: MMX2 SSE2Fast SSSE3 SSE4.2 AVX FMA3 BMI2 AVX2
[libx264 @ 0x5f395900e480] profile High, level 3.1, 4:2:0, 8-bit
[libx264 @ 0x5f395900e480] 264 - core 164 r3108 31e19f9 - H.264/MPEG-4 AVC codec - Copyleft 2003-2023 - http://www.videolan.org/x264.html - options: cabac=1 ref=3 deblock=1:0:0 analyse=0x3:0x113 me=hex subme=7 psy=1 psy_rd=1.00:0.00 mixed_ref=1 me_range=16 chroma_me=1 trellis=1 8x8dct=1 cqm=0 deadzone=21,11 fast_pskip=1 chroma_qp_offset=-2 threads=22 lookahead_threads=3 sliced_threads=0 nr=0 decimate=1 interlaced=0 bluray_compat=0 constrained_intra=0 bframes=3 b_pyramid=2 b_adapt=1 b_bias=0 direct=1 weightb=1 open_gop=0 weightp=2 keyint=250 keyint_min=25 scenecut=40 intra_refresh=0 rc_lookahead=40 rc=crf mbtree=1 crf=18.0 qcomp=0.60 qpmin=0 qpmax=69 qpstep=4 ip_ratio=1.40 aq=1:1.00
Output #0, mp4, to '/home/xinjie/Newton_Connection/Newton/phystwin_bridge/results/robot_rope_franka/candidates/20260401_232319_visscale0p1_c14/presentation/work/robot_rope_tabletop_hero.mp4':
  Metadata:
    encoder         : Lavf60.16.100
  Stream #0:0: Video: h264 (avc1 / 0x31637661), yuv420p(tv, progressive), 1280x720, q=2-31, 30 fps, 15360 tbn
    Metadata:
      encoder         : Lavc60.31.102 libx264
    Side data:
      cpb: bitrate max/min/avg: 0/0/0 buffer size: 0 vbv_delay: N/A
frame=    0 fps=0.0 q=0.0 size=       0kB time=N/A bitrate=N/A speed=N/A    frame=   47 fps=0.0 q=24.0 size=       0kB time=00:00:01.50 bitrate=   0.3kbits/s speed=2.99x    [out#0/mp4 @ 0x5f395900cc80] video:692kB audio:0kB subtitle:0kB other streams:0kB global headers:0kB muxing overhead: 0.432991%
frame=  186 fps=0.0 q=-1.0 Lsize=     695kB time=00:00:06.10 bitrate= 933.3kbits/s speed=7.03x    
[libx264 @ 0x5f395900e480] frame I:1     Avg QP: 9.09  size: 86534
[libx264 @ 0x5f395900e480] frame P:48    Avg QP:16.55  size:  7323
[libx264 @ 0x5f395900e480] frame B:137   Avg QP:22.90  size:  1970
[libx264 @ 0x5f395900e480] consecutive B-frames:  0.5%  2.2%  4.8% 92.5%
[libx264 @ 0x5f395900e480] mb I  I16..4: 47.1% 11.3% 41.6%
[libx264 @ 0x5f395900e480] mb P  I16..4:  0.2%  0.5%  0.2%  P16..4:  3.9%  2.8%  2.2%  0.0%  0.0%    skip:90.2%
[libx264 @ 0x5f395900e480] mb B  I16..4:  0.0%  0.0%  0.0%  B16..8:  3.5%  1.4%  0.6%  direct: 0.6%  skip:93.8%  L0:35.7% L1:39.8% BI:24.5%
[libx264 @ 0x5f395900e480] 8x8 transform intra:26.4% inter:18.6%
[libx264 @ 0x5f395900e480] coded y,uvDC,uvAC intra: 34.2% 41.7% 36.3% inter: 2.2% 0.6% 0.3%
[libx264 @ 0x5f395900e480] i16 v,h,dc,p: 77% 12%  8%  4%
[libx264 @ 0x5f395900e480] i8 v,h,dc,ddl,ddr,vr,hd,vl,hu: 15% 16% 43%  2%  9%  6%  3%  1%  4%
[libx264 @ 0x5f395900e480] i4 v,h,dc,ddl,ddr,vr,hd,vl,hu: 21% 30% 18%  2%  7%  5%  8%  1%  7%
[libx264 @ 0x5f395900e480] i8c dc,h,v,p: 66% 20% 11%  3%
[libx264 @ 0x5f395900e480] Weighted P-Frames: Y:0.0% UV:0.0%
[libx264 @ 0x5f395900e480] ref P L0: 65.6% 12.6% 16.5%  5.3%
[libx264 @ 0x5f395900e480] ref B L0: 84.2% 13.3%  2.4%
[libx264 @ 0x5f395900e480] ref B L1: 93.9%  6.1%
[libx264 @ 0x5f395900e480] kb/s:913.38
/home/xinjie/Newton_Connection/Newton/phystwin_bridge/tools/core/newton_import_ir.py:1209: UserWarning: tabletop_table_box: PhysTwin ground collide_elas is present in IR, but native Newton SemiImplicit has no direct 1-to-1 restitution field for particle-vs-shape contacts. Ground bounce will therefore use native Newton ground ke/kd/kf defaults unless --ground-restitution-mode=approximate-native is selected.
  warnings.warn(message)
ffmpeg version 6.1.1-3ubuntu5+esm7 Copyright (c) 2000-2023 the FFmpeg developers
  built with gcc 13 (Ubuntu 13.3.0-6ubuntu2~24.04)
  configuration: --prefix=/usr --extra-version=3ubuntu5+esm7 --toolchain=hardened --libdir=/usr/lib/x86_64-linux-gnu --incdir=/usr/include/x86_64-linux-gnu --arch=amd64 --enable-gpl --disable-stripping --disable-omx --enable-gnutls --enable-libaom --enable-libass --enable-libbs2b --enable-libcaca --enable-libcdio --enable-libcodec2 --enable-libdav1d --enable-libflite --enable-libfontconfig --enable-libfreetype --enable-libfribidi --enable-libglslang --enable-libgme --enable-libgsm --enable-libharfbuzz --enable-libmp3lame --enable-libmysofa --enable-libopenjpeg --enable-libopenmpt --enable-libopus --enable-librubberband --enable-libshine --enable-libsnappy --enable-libsoxr --enable-libspeex --enable-libtheora --enable-libtwolame --enable-libvidstab --enable-libvorbis --enable-libvpx --enable-libwebp --enable-libx265 --enable-libxml2 --enable-libxvid --enable-libzimg --enable-openal --enable-opencl --enable-opengl --disable-sndio --enable-libvpl --disable-libmfx --enable-libdc1394 --enable-libdrm --enable-libiec61883 --enable-chromaprint --enable-frei0r --enable-ladspa --enable-libbluray --enable-libjack --enable-libpulse --enable-librabbitmq --enable-librist --enable-libsrt --enable-libssh --enable-libsvtav1 --enable-libx264 --enable-libzmq --enable-libzvbi --enable-lv2 --enable-sdl2 --enable-libplacebo --enable-librav1e --enable-pocketsphinx --enable-librsvg --enable-libjxl --enable-shared
  libavutil      58. 29.100 / 58. 29.100
  libavcodec     60. 31.102 / 60. 31.102
  libavformat    60. 16.100 / 60. 16.100
  libavdevice    60.  3.100 / 60.  3.100
  libavfilter     9. 12.100 /  9. 12.100
  libswscale      7.  5.100 /  7.  5.100
  libswresample   4. 12.100 /  4. 12.100
  libpostproc    57.  3.100 / 57.  3.100
Input #0, rawvideo, from 'fd:':
  Duration: N/A, start: 0.000000, bitrate: 663552 kb/s
  Stream #0:0: Video: rawvideo (RGB[24] / 0x18424752), rgb24, 1280x720, 663552 kb/s, 30 tbr, 30 tbn
Stream mapping:
  Stream #0:0 -> #0:0 (rawvideo (native) -> h264 (libx264))
[libx264 @ 0x651ba9633480] using cpu capabilities: MMX2 SSE2Fast SSSE3 SSE4.2 AVX FMA3 BMI2 AVX2
[libx264 @ 0x651ba9633480] profile High, level 3.1, 4:2:0, 8-bit
[libx264 @ 0x651ba9633480] 264 - core 164 r3108 31e19f9 - H.264/MPEG-4 AVC codec - Copyleft 2003-2023 - http://www.videolan.org/x264.html - options: cabac=1 ref=3 deblock=1:0:0 analyse=0x3:0x113 me=hex subme=7 psy=1 psy_rd=1.00:0.00 mixed_ref=1 me_range=16 chroma_me=1 trellis=1 8x8dct=1 cqm=0 deadzone=21,11 fast_pskip=1 chroma_qp_offset=-2 threads=22 lookahead_threads=3 sliced_threads=0 nr=0 decimate=1 interlaced=0 bluray_compat=0 constrained_intra=0 bframes=3 b_pyramid=2 b_adapt=1 b_bias=0 direct=1 weightb=1 open_gop=0 weightp=2 keyint=250 keyint_min=25 scenecut=40 intra_refresh=0 rc_lookahead=40 rc=crf mbtree=1 crf=18.0 qcomp=0.60 qpmin=0 qpmax=69 qpstep=4 ip_ratio=1.40 aq=1:1.00
Output #0, mp4, to '/home/xinjie/Newton_Connection/Newton/phystwin_bridge/results/robot_rope_franka/candidates/20260401_232319_visscale0p1_c14/debug/work/robot_rope_tabletop_hero_debug.mp4':
  Metadata:
    encoder         : Lavf60.16.100
  Stream #0:0: Video: h264 (avc1 / 0x31637661), yuv420p(tv, progressive), 1280x720, q=2-31, 30 fps, 15360 tbn
    Metadata:
      encoder         : Lavc60.31.102 libx264
    Side data:
      cpb: bitrate max/min/avg: 0/0/0 buffer size: 0 vbv_delay: N/A
frame=    0 fps=0.0 q=0.0 size=       0kB time=N/A bitrate=N/A speed=N/A    frame=    0 fps=0.0 q=0.0 size=       0kB time=N/A bitrate=N/A speed=N/A    frame=    0 fps=0.0 q=0.0 size=       0kB time=N/A bitrate=N/A speed=N/A    frame=    0 fps=0.0 q=0.0 size=       0kB time=N/A bitrate=N/A speed=N/A    frame=    0 fps=0.0 q=0.0 size=       0kB time=N/A bitrate=N/A speed=N/A    frame=    0 fps=0.0 q=0.0 size=       0kB time=N/A bitrate=N/A speed=N/A    frame=    0 fps=0.0 q=0.0 size=       0kB time=N/A bitrate=N/A speed=N/A    frame=    0 fps=0.0 q=0.0 size=       0kB time=N/A bitrate=N/A speed=N/A    frame=    0 fps=0.0 q=0.0 size=       0kB time=N/A bitrate=N/A speed=N/A    frame=    0 fps=0.0 q=0.0 size=       0kB time=N/A bitrate=N/A speed=N/A    frame=    4 fps=0.7 q=24.0 size=       0kB time=00:00:00.06 bitrate=   5.8kbits/s speed=0.0118x    frame=   11 fps=1.8 q=24.0 size=       0kB time=00:00:00.30 bitrate=   1.3kbits/s speed=0.0486x    frame=   18 fps=2.7 q=24.0 size=       0kB time=00:00:00.53 bitrate=   0.7kbits/s speed=0.0793x    frame=   25 fps=3.4 q=24.0 size=       0kB time=00:00:00.76 bitrate=   0.5kbits/s speed=0.105x    frame=   32 fps=4.1 q=24.0 size=       0kB time=00:00:01.00 bitrate=   0.4kbits/s speed=0.128x    frame=   39 fps=4.7 q=24.0 size=       0kB time=00:00:01.23 bitrate=   0.3kbits/s speed=0.147x    frame=   46 fps=5.2 q=24.0 size=       0kB time=00:00:01.46 bitrate=   0.3kbits/s speed=0.164x    frame=   53 fps=5.6 q=24.0 size=       0kB time=00:00:01.70 bitrate=   0.2kbits/s speed=0.179x    frame=   60 fps=6.0 q=24.0 size=       0kB time=00:00:01.93 bitrate=   0.2kbits/s speed=0.193x    frame=   67 fps=6.3 q=24.0 size=       0kB time=00:00:02.16 bitrate=   0.2kbits/s speed=0.205x    frame=   74 fps=6.6 q=24.0 size=       0kB time=00:00:02.40 bitrate=   0.2kbits/s speed=0.215x    frame=   80 fps=6.9 q=24.0 size=     256kB time=00:00:02.60 bitrate= 806.7kbits/s speed=0.223x    frame=   86 fps=7.1 q=24.0 size=     256kB time=00:00:02.80 bitrate= 749.1kbits/s speed=0.23x    frame=   93 fps=7.3 q=24.0 size=     256kB time=00:00:03.03 bitrate= 691.5kbits/s speed=0.238x    frame=  100 fps=7.5 q=24.0 size=     256kB time=00:00:03.26 bitrate= 642.1kbits/s speed=0.245x    frame=  107 fps=7.7 q=24.0 size=     256kB time=00:00:03.50 bitrate= 599.3kbits/s speed=0.252x    frame=  113 fps=7.9 q=24.0 size=     256kB time=00:00:03.70 bitrate= 566.9kbits/s speed=0.257x    frame=  120 fps=8.0 q=24.0 size=     256kB time=00:00:03.90 bitrate= 537.8kbits/s speed=0.261x    [out#0/mp4 @ 0x651ba9631c80] video:671kB audio:0kB subtitle:0kB other streams:0kB global headers:0kB muxing overhead: 0.446438%
frame=  186 fps= 12 q=-1.0 Lsize=     674kB time=00:00:06.10 bitrate= 905.3kbits/s speed=0.406x    
[libx264 @ 0x651ba9633480] frame I:1     Avg QP:11.70  size: 50423
[libx264 @ 0x651ba9633480] frame P:48    Avg QP:16.89  size:  7969
[libx264 @ 0x651ba9633480] frame B:137   Avg QP:24.99  size:  1851
[libx264 @ 0x651ba9633480] consecutive B-frames:  0.5%  2.2%  4.8% 92.5%
[libx264 @ 0x651ba9633480] mb I  I16..4: 41.3% 37.1% 21.6%
[libx264 @ 0x651ba9633480] mb P  I16..4:  0.2%  0.2%  0.3%  P16..4:  3.8%  2.7%  2.4%  0.0%  0.0%    skip:90.2%
[libx264 @ 0x651ba9633480] mb B  I16..4:  0.0%  0.0%  0.0%  B16..8:  3.0%  1.3%  0.6%  direct: 0.6%  skip:94.5%  L0:34.5% L1:41.2% BI:24.3%
[libx264 @ 0x651ba9633480] 8x8 transform intra:35.0% inter:20.1%
[libx264 @ 0x651ba9633480] coded y,uvDC,uvAC intra: 25.3% 23.1% 14.4% inter: 2.2% 0.7% 0.3%
[libx264 @ 0x651ba9633480] i16 v,h,dc,p: 76% 19%  3%  2%
[libx264 @ 0x651ba9633480] i8 v,h,dc,ddl,ddr,vr,hd,vl,hu: 44% 16% 33%  1%  1%  1%  1%  1%  2%
[libx264 @ 0x651ba9633480] i4 v,h,dc,ddl,ddr,vr,hd,vl,hu: 27% 27% 16%  3%  6%  6%  6%  4%  6%
[libx264 @ 0x651ba9633480] i8c dc,h,v,p: 70% 21%  8%  1%
[libx264 @ 0x651ba9633480] Weighted P-Frames: Y:0.0% UV:0.0%
[libx264 @ 0x651ba9633480] ref P L0: 66.9% 14.8% 13.4%  5.0%
[libx264 @ 0x651ba9633480] ref B L0: 87.5% 10.7%  1.8%
[libx264 @ 0x651ba9633480] ref B L1: 95.6%  4.4%
[libx264 @ 0x651ba9633480] kb/s:885.84
/home/xinjie/Newton_Connection/Newton/phystwin_bridge/tools/core/newton_import_ir.py:1209: UserWarning: tabletop_table_box: PhysTwin ground collide_elas is present in IR, but native Newton SemiImplicit has no direct 1-to-1 restitution field for particle-vs-shape contacts. Ground bounce will therefore use native Newton ground ke/kd/kf defaults unless --ground-restitution-mode=approximate-native is selected.
  warnings.warn(message)
ffmpeg version 6.1.1-3ubuntu5+esm7 Copyright (c) 2000-2023 the FFmpeg developers
  built with gcc 13 (Ubuntu 13.3.0-6ubuntu2~24.04)
  configuration: --prefix=/usr --extra-version=3ubuntu5+esm7 --toolchain=hardened --libdir=/usr/lib/x86_64-linux-gnu --incdir=/usr/include/x86_64-linux-gnu --arch=amd64 --enable-gpl --disable-stripping --disable-omx --enable-gnutls --enable-libaom --enable-libass --enable-libbs2b --enable-libcaca --enable-libcdio --enable-libcodec2 --enable-libdav1d --enable-libflite --enable-libfontconfig --enable-libfreetype --enable-libfribidi --enable-libglslang --enable-libgme --enable-libgsm --enable-libharfbuzz --enable-libmp3lame --enable-libmysofa --enable-libopenjpeg --enable-libopenmpt --enable-libopus --enable-librubberband --enable-libshine --enable-libsnappy --enable-libsoxr --enable-libspeex --enable-libtheora --enable-libtwolame --enable-libvidstab --enable-libvorbis --enable-libvpx --enable-libwebp --enable-libx265 --enable-libxml2 --enable-libxvid --enable-libzimg --enable-openal --enable-opencl --enable-opengl --disable-sndio --enable-libvpl --disable-libmfx --enable-libdc1394 --enable-libdrm --enable-libiec61883 --enable-chromaprint --enable-frei0r --enable-ladspa --enable-libbluray --enable-libjack --enable-libpulse --enable-librabbitmq --enable-librist --enable-libsrt --enable-libssh --enable-libsvtav1 --enable-libx264 --enable-libzmq --enable-libzvbi --enable-lv2 --enable-sdl2 --enable-libplacebo --enable-librav1e --enable-pocketsphinx --enable-librsvg --enable-libjxl --enable-shared
  libavutil      58. 29.100 / 58. 29.100
  libavcodec     60. 31.102 / 60. 31.102
  libavformat    60. 16.100 / 60. 16.100
  libavdevice    60.  3.100 / 60.  3.100
  libavfilter     9. 12.100 /  9. 12.100
  libswscale      7.  5.100 /  7.  5.100
  libswresample   4. 12.100 /  4. 12.100
  libpostproc    57.  3.100 / 57.  3.100
Input #0, rawvideo, from 'fd:':
  Duration: N/A, start: 0.000000, bitrate: 663552 kb/s
  Stream #0:0: Video: rawvideo (RGB[24] / 0x18424752), rgb24, 1280x720, 663552 kb/s, 30 tbr, 30 tbn
Stream mapping:
  Stream #0:0 -> #0:0 (rawvideo (native) -> h264 (libx264))
[libx264 @ 0x616d1037b480] using cpu capabilities: MMX2 SSE2Fast SSSE3 SSE4.2 AVX FMA3 BMI2 AVX2
[libx264 @ 0x616d1037b480] profile High, level 3.1, 4:2:0, 8-bit
[libx264 @ 0x616d1037b480] 264 - core 164 r3108 31e19f9 - H.264/MPEG-4 AVC codec - Copyleft 2003-2023 - http://www.videolan.org/x264.html - options: cabac=1 ref=3 deblock=1:0:0 analyse=0x3:0x113 me=hex subme=7 psy=1 psy_rd=1.00:0.00 mixed_ref=1 me_range=16 chroma_me=1 trellis=1 8x8dct=1 cqm=0 deadzone=21,11 fast_pskip=1 chroma_qp_offset=-2 threads=22 lookahead_threads=3 sliced_threads=0 nr=0 decimate=1 interlaced=0 bluray_compat=0 constrained_intra=0 bframes=3 b_pyramid=2 b_adapt=1 b_bias=0 direct=1 weightb=1 open_gop=0 weightp=2 keyint=250 keyint_min=25 scenecut=40 intra_refresh=0 rc_lookahead=40 rc=crf mbtree=1 crf=18.0 qcomp=0.60 qpmin=0 qpmax=69 qpstep=4 ip_ratio=1.40 aq=1:1.00
Output #0, mp4, to '/home/xinjie/Newton_Connection/Newton/phystwin_bridge/results/robot_rope_franka/candidates/20260401_232319_visscale0p1_c14/validation/work/robot_rope_tabletop_hero_validation.mp4':
  Metadata:
    encoder         : Lavf60.16.100
  Stream #0:0: Video: h264 (avc1 / 0x31637661), yuv420p(tv, progressive), 1280x720, q=2-31, 30 fps, 15360 tbn
    Metadata:
      encoder         : Lavc60.31.102 libx264
    Side data:
      cpb: bitrate max/min/avg: 0/0/0 buffer size: 0 vbv_delay: N/A
frame=    0 fps=0.0 q=0.0 size=       0kB time=N/A bitrate=N/A speed=N/A    frame=   38 fps=0.0 q=24.0 size=       0kB time=00:00:01.20 bitrate=   0.3kbits/s speed=2.38x    [out#0/mp4 @ 0x616d10379c80] video:626kB audio:0kB subtitle:0kB other streams:0kB global headers:0kB muxing overhead: 0.478697%
frame=  186 fps=0.0 q=-1.0 Lsize=     629kB time=00:00:06.10 bitrate= 844.6kbits/s speed=6.45x    
[libx264 @ 0x616d1037b480] frame I:1     Avg QP:10.81  size: 82410
[libx264 @ 0x616d1037b480] frame P:48    Avg QP:16.29  size:  6266
[libx264 @ 0x616d1037b480] frame B:137   Avg QP:23.01  size:  1876
[libx264 @ 0x616d1037b480] consecutive B-frames:  0.5%  2.2%  4.8% 92.5%
[libx264 @ 0x616d1037b480] mb I  I16..4: 30.7% 27.4% 41.9%
[libx264 @ 0x616d1037b480] mb P  I16..4:  0.1%  0.3%  0.2%  P16..4:  3.3%  2.2%  1.8%  0.0%  0.0%    skip:92.1%
[libx264 @ 0x616d1037b480] mb B  I16..4:  0.0%  0.1%  0.0%  B16..8:  3.0%  1.1%  0.5%  direct: 0.5%  skip:94.8%  L0:36.2% L1:38.4% BI:25.4%
[libx264 @ 0x616d1037b480] 8x8 transform intra:39.1% inter:18.7%
[libx264 @ 0x616d1037b480] coded y,uvDC,uvAC intra: 30.1% 40.4% 36.3% inter: 1.9% 0.5% 0.3%
[libx264 @ 0x616d1037b480] i16 v,h,dc,p: 76% 11% 10%  3%
[libx264 @ 0x616d1037b480] i8 v,h,dc,ddl,ddr,vr,hd,vl,hu: 31%  7% 51%  1%  3%  4%  2%  0%  2%
[libx264 @ 0x616d1037b480] i4 v,h,dc,ddl,ddr,vr,hd,vl,hu: 26% 31% 15%  1%  6%  5%  7%  1%  8%
[libx264 @ 0x616d1037b480] i8c dc,h,v,p: 69% 17% 12%  2%
[libx264 @ 0x616d1037b480] Weighted P-Frames: Y:0.0% UV:0.0%
[libx264 @ 0x616d1037b480] ref P L0: 65.9% 12.5% 16.3%  5.4%
[libx264 @ 0x616d1037b480] ref B L0: 85.4% 12.4%  2.2%
[libx264 @ 0x616d1037b480] ref B L1: 95.1%  4.9%
[libx264 @ 0x616d1037b480] kb/s:826.09
